<svg width="25" height="24" viewBox="0 0 25 24" fill="none" xmlns="http://www.w3.org/2000/svg">
<path d="M8.33301 14C11.7848 14 14.583 11.3137 14.583 8C14.583 4.68629 11.7848 2 8.33301 2C4.88123 2 2.08301 4.68629 2.08301 8C2.08301 11.3137 4.88123 14 8.33301 14Z" stroke="#BB4D00" stroke-width="2" stroke-linecap="round" stroke-linejoin="round"/>
<path d="M18.8434 10.3691C19.8281 10.7216 20.7044 11.3067 21.3911 12.0703C22.0778 12.834 22.5529 13.7516 22.7723 14.7382C22.9918 15.7248 22.9485 16.7487 22.6466 17.715C22.3447 18.6813 21.7938 19.559 21.0449 20.2668C20.296 20.9745 19.3733 21.4896 18.3622 21.7644C17.351 22.0391 16.2839 22.0646 15.2598 21.8386C14.2356 21.6126 13.2873 21.1422 12.5026 20.4711C11.7179 19.8 11.1222 18.9498 10.7705 17.9991" stroke="#BB4D00" stroke-width="2" stroke-linecap="round" stroke-linejoin="round"/>
<path d="M7.29199 6H8.33366V10" stroke="#BB4D00" stroke-width="2" stroke-linecap="round" stroke-linejoin="round"/>
<path d="M17.4066 13.8809L18.1357 14.5909L15.1982 17.4109" stroke="#BB4D00" stroke-width="2" stroke-linecap="round" stroke-linejoin="round"/>
</svg>
